<?xml version="1.0" encoding="UTF-8"?>
<!DOCTYPE svg PUBLIC "-//W3C//DTD SVG 1.0//EN" "http://www.w3.org/TR/2001/REC-SVG-20010904/DTD/svg10.dtd">
<!-- Creator: CorelDRAW 2018 (64-Bit) -->
<svg xmlns="http://www.w3.org/2000/svg" xml:space="preserve" width="20mm" height="20mm" version="1.0" style="shape-rendering:geometricPrecision; text-rendering:geometricPrecision; image-rendering:optimizeQuality; fill-rule:evenodd; clip-rule:evenodd"
viewBox="0 0 2000 2000"
 xmlns:xlink="http://www.w3.org/1999/xlink">
 <defs>
  <style type="text/css">
   <![CDATA[
    .str2 {stroke:#3F5F7F;stroke-width:100;stroke-linejoin:bevel;stroke-miterlimit:22.9256}
    .str0 {stroke:#3F5F7F;stroke-width:50;stroke-linejoin:bevel;stroke-miterlimit:22.9256}
    .str1 {stroke:#3F5F7F;stroke-width:25;stroke-linejoin:bevel;stroke-miterlimit:22.9256}
    .fil0 {fill:none}
    .fil1 {fill:#0033CC}
    .fil2 {fill:#D6D6D6}
   ]]>
  </style>
    <clipPath id="id0">
     <path d="M1310.06 729.06l-351.7 369.95 0 69.78 52.69 0z"/>
    </clipPath>
    <clipPath id="id1">
     <path d="M1213.82 670.91l-255.46 428.1 0 69.78 50.16 -54.59z"/>
    </clipPath>
 </defs>
 <g id="Слой_x0020_1">
  <metadata id="CorelCorpID_0Corel-Layer"/>
  <path class="fil0 str0" d="M1719.45 1071.01c0,-397.35 -322.11,-719.46 -719.45,-719.46 -397.34,0 -719.45,322.11 -719.45,719.46 0,397.34 322.1,719.45 719.45,719.45 397.34,0 719.45,-322.11 719.45,-719.45z"/>
  <path class="fil0 str1" d="M1600.12 1071.01c0,-159.16 -63.23,-311.81 -175.77,-424.35 -112.55,-112.54 -265.19,-175.77 -424.35,-175.77"/>
  <path class="fil0 str0" d="M1609.06 500.81c-32.38,-34.59 -67.64,-66.35 -105.41,-94.95"/>
  <path class="fil0 str0" d="M487.5 412.65c-34.37,26.77 -66.6,56.18 -96.39,87.98"/>
  <g>
   <path class="fil1" d="M1310.06 729.06l-351.7 369.95 0 69.78 52.69 0z"/>
   <g style="clip-path:url(#id0)">
   </g>
  </g>
  <g>
   <path class="fil2" d="M1213.82 670.91l-255.46 428.1 0 69.78 50.16 -54.59z"/>
   <g style="clip-path:url(#id1)">
   </g>
  </g>
  <path class="fil0 str2" d="M1063.16 211.86c-41.49,-3.05 -83.14,-3.09 -124.63,-0.13"/>
 </g>
</svg>
