<?xml version="1.0" encoding="UTF-8"?>
<!DOCTYPE svg PUBLIC "-//W3C//DTD SVG 1.0//EN" "http://www.w3.org/TR/2001/REC-SVG-20010904/DTD/svg10.dtd">
<!-- Creator: CorelDRAW 2018 (64-Bit) -->
<svg xmlns="http://www.w3.org/2000/svg" xml:space="preserve" width="20mm" height="30mm" version="1.0" style="shape-rendering:geometricPrecision; text-rendering:geometricPrecision; image-rendering:optimizeQuality; fill-rule:evenodd; clip-rule:evenodd"
viewBox="0 0 2000 3000"
 xmlns:xlink="http://www.w3.org/1999/xlink">
 <defs>
  <style type="text/css">
   <![CDATA[
    .str1 {stroke:#2B2A29;stroke-width:20;stroke-miterlimit:22.9256}
    .str0 {stroke:black;stroke-width:7.62;stroke-linejoin:bevel;stroke-miterlimit:22.9256}
    .fil0 {fill:none}
    .fil1 {fill:#727271}
   ]]>
  </style>
 </defs>
 <g id="Слой_x0020_1">
  <metadata id="CorelCorpID_0Corel-Layer"/>
  <path class="fil0 str0" d="M1717.38 385.98l0 2404.73"/>
  <path class="fil0 str0" d="M514.37 794.69l932.89 0"/>
  <path class="fil0 str0" d="M1130.63 2563.85c0,-82.74 -67.07,-149.81 -149.81,-149.81 -82.75,0 -149.82,67.07 -149.82,149.81 0,82.75 67.07,149.86 149.82,149.86 82.74,0 149.81,-67.07 149.81,-149.86z"/>
  <path class="fil0 str0" d="M288.41 341.86c-11.74,0 -22.96,4.63 -31.22,12.94 -8.27,8.26 -12.94,19.48 -12.94,31.18"/>
  <path class="fil0 str0" d="M1717.38 385.98c0,-11.7 -4.66,-22.92 -12.93,-31.18 -8.27,-8.31 -19.49,-12.94 -31.22,-12.94"/>
  <path class="fil0 str0" d="M244.25 2790.71c0,11.7 4.67,22.92 12.94,31.18 8.26,8.31 19.48,12.94 31.22,12.94"/>
  <path class="fil0 str0" d="M1673.23 2834.83c24.37,0 44.15,-19.75 44.15,-44.12"/>
  <path class="fil0 str0" d="M514.37 794.69c-11.73,0 -22.95,4.67 -31.22,12.93 -8.27,8.27 -12.93,19.49 -12.93,31.23"/>
  <path class="fil0 str0" d="M1491.42 838.85c0,-11.74 -4.67,-22.96 -12.93,-31.23 -8.27,-8.26 -19.49,-12.93 -31.23,-12.93"/>
  <path class="fil0 str0" d="M470.22 2224.86c0,11.7 4.66,22.92 12.93,31.23 8.27,8.26 19.49,12.93 31.22,12.93"/>
  <path class="fil0 str0" d="M1447.26 2269.02c24.42,0 44.16,-19.79 44.16,-44.16"/>
  <path class="fil0 str0" d="M1491.42 838.85l0 1386.01"/>
  <path class="fil0 str0" d="M1447.26 2269.02l-932.89 0"/>
  <path class="fil0 str0" d="M470.22 2224.86l0 -1386.01"/>
  <path class="fil0 str0" d="M1673.23 2834.83l-1384.82 0"/>
  <path class="fil0 str0" d="M244.25 2790.71l0 -2404.73"/>
  <path class="fil0 str0" d="M288.41 341.86l1384.82 0"/>
  <path class="fil1 str1" d="M1673.23 341.86l-1384.82 0c-11.74,0 -22.96,4.63 -31.22,12.94 -8.27,8.26 -12.94,19.48 -12.94,31.18l0 2404.73c0,11.7 4.67,22.92 12.94,31.18 8.26,8.31 19.48,12.94 31.22,12.94l1384.82 0c24.37,0 44.15,-19.75 44.15,-44.12l0 -2404.73c0,-11.7 -4.66,-22.92 -12.93,-31.18 -8.27,-8.31 -19.49,-12.94 -31.22,-12.94zm-1203.01 1883l0 -1386.01c0,-11.74 4.66,-22.96 12.93,-31.23 8.27,-8.26 19.49,-12.93 31.22,-12.93l932.89 0c11.74,0 22.96,4.67 31.23,12.93 8.26,8.27 12.93,19.49 12.93,31.23l0 1386.01c0,24.37 -19.74,44.16 -44.16,44.16l-932.89 0c-11.73,0 -22.95,-4.67 -31.22,-12.93 -8.27,-8.31 -12.93,-19.53 -12.93,-31.23zm510.6 189.18c82.74,0 149.81,67.07 149.81,149.81 0,82.79 -67.07,149.86 -149.81,149.86 -82.75,0 -149.82,-67.11 -149.82,-149.86 0,-82.74 67.07,-149.81 149.82,-149.81z"/>
 </g>
</svg>
