<svg xmlns="http://www.w3.org/2000/svg" width="74" height="85" viewBox="0 0 74 85"><g><g><g><path fill="#32325f" d="M44.916 29.883a1.66 1.66 0 1 0-.002-3.322 1.66 1.66 0 0 0 .002 3.322z"/></g><g><path fill="#32325f" d="M28.314 29.883a1.66 1.66 0 1 0-.001-3.322 1.66 1.66 0 0 0 .001 3.322z"/></g><g><path fill="#32325f" d="M32.177 41.294a10.33 10.33 0 0 0 4.437.99c1.517 0 2.981-.32 4.353-.95a1.66 1.66 0 0 0-1.387-3.017 7.056 7.056 0 0 1-2.966.647 7.031 7.031 0 0 1-3.022-.673 1.66 1.66 0 1 0-1.415 3.003z"/></g><g><path fill="#32325f" d="M69.907 81.68H45.428l-2.097-9.203 1.444-4.17 1.083.542a1.66 1.66 0 0 0 2.26-.81l6.21-13.956c7.266.537 15.58 6.442 15.58 13.281zM3.32 67.364c0-6.839 8.314-12.744 15.58-13.281l6.21 13.956a1.661 1.661 0 0 0 2.26.81l1.183-.592 1.347 4.195-2.165 9.228H3.32zM26.267 48.95l7.972 12.753-6.801 3.4-5.47-12.292zM33.31 3.32c-8.207 0-14.883 6.703-14.883 14.942v1.23l2.958-4.336a1.658 1.658 0 0 1 2.558-.225c3.377 3.451 7.285 4.99 12.67 4.99 5.387 0 9.295-1.539 12.67-4.99a1.658 1.658 0 0 1 2.55.214l3.117 4.489v-1.372c0-8.24-6.729-14.942-15-14.942zM45.79 65.103l5.47-12.293-4.299-3.862-7.97 12.754zm-3.416-15.08a21.677 21.677 0 0 1-5.743.777c-1.966 0-3.912-.27-5.786-.791l5.77 9.229zM41.78 66.81l-5.165-2.584-5.057 2.529 1.274 3.968h7.593zM31.145 81.68h10.878l-1.74-7.637h-7.346zm42.083 1.66a1.66 1.66 0 0 1-1.66 1.66H1.66A1.66 1.66 0 0 1 0 83.34V67.364c0-9.148 10.416-16.289 19.308-16.627l4.581-4.116a21.696 21.696 0 0 1-8.782-17.402V18.262C15.107 8.163 23.223 0 33.311 0h6.64c10.102 0 18.32 8.192 18.32 18.262v10.957c0 6.9-3.36 13.393-8.898 17.433l4.546 4.085c8.912.339 19.309 7.498 19.309 16.627z"/></g><g><path fill="#32325f" d="M58.197 74.043h-6.64a1.66 1.66 0 1 0 0 3.32h6.64a1.66 1.66 0 1 0 0-3.32z"/></g><g><path fill="#32325f" d="M64.746 74.043a1.66 1.66 0 1 1-.001 3.322 1.66 1.66 0 0 1 .001-3.322z"/></g></g></g></svg>